<svg xmlns="http://www.w3.org/2000/svg" viewBox="0 0 800 980" shape-rendering="geometricPrecision">
<defs>
  <linearGradient id="archPeach" x1="0%" y1="0%" x2="100%" y2="0%">
    <stop offset="0%"   stop-color="#5C2408"/>
    <stop offset="10%"  stop-color="#A85A20"/>
    <stop offset="22%"  stop-color="#E8A050"/>
    <stop offset="38%"  stop-color="#F8D898"/>
    <stop offset="50%"  stop-color="#FFF0D0"/>
    <stop offset="62%"  stop-color="#F8D898"/>
    <stop offset="78%"  stop-color="#E8A050"/>
    <stop offset="90%"  stop-color="#A85A20"/>
    <stop offset="100%" stop-color="#5C2408"/>
  </linearGradient>

  <linearGradient id="woodMain" x1="0%" y1="0%" x2="100%" y2="0%">
    <stop offset="0%"   stop-color="#130601"/>
    <stop offset="6%"   stop-color="#2E1206"/>
    <stop offset="18%"  stop-color="#4A2010"/>
    <stop offset="50%"  stop-color="#522514"/>
    <stop offset="82%"  stop-color="#4A2010"/>
    <stop offset="94%"  stop-color="#2E1206"/>
    <stop offset="100%" stop-color="#130601"/>
  </linearGradient>

  <linearGradient id="woodBase" x1="0%" y1="0%" x2="0%" y2="100%">
    <stop offset="0%"   stop-color="#3A1808"/>
    <stop offset="100%" stop-color="#180804"/>
  </linearGradient>

  <linearGradient id="woodColumn" x1="0%" y1="0%" x2="100%" y2="0%">
    <stop offset="0%"   stop-color="#251005"/>
    <stop offset="30%"  stop-color="#4A2010"/>
    <stop offset="50%"  stop-color="#5A2A16"/>
    <stop offset="70%"  stop-color="#4A2010"/>
    <stop offset="100%" stop-color="#251005"/>
  </linearGradient>

  <linearGradient id="colGlow" x1="0%" y1="0%" x2="100%" y2="0%">
    <stop offset="0%"   stop-color="#4A2008"/>
    <stop offset="20%"  stop-color="#C88030"/>
    <stop offset="50%"  stop-color="#FFD880"/>
    <stop offset="80%"  stop-color="#C88030"/>
    <stop offset="100%" stop-color="#4A2008"/>
  </linearGradient>

  <linearGradient id="colGlowL" x1="100%" y1="0%" x2="0%" y2="0%">
    <stop offset="0%"   stop-color="#4A2008"/>
    <stop offset="20%"  stop-color="#C88030"/>
    <stop offset="50%"  stop-color="#FFD880"/>
    <stop offset="80%"  stop-color="#C88030"/>
    <stop offset="100%" stop-color="#4A2008"/>
  </linearGradient>

  <linearGradient id="chromeV" x1="0%" y1="0%" x2="0%" y2="100%">
    <stop offset="0%"   stop-color="#F0F0F0"/>
    <stop offset="30%"  stop-color="#C8C8C8"/>
    <stop offset="60%"  stop-color="#909090"/>
    <stop offset="100%" stop-color="#D0D0D0"/>
  </linearGradient>

  <linearGradient id="chromeH" x1="0%" y1="0%" x2="100%" y2="0%">
    <stop offset="0%"   stop-color="#808080"/>
    <stop offset="20%"  stop-color="#D8D8D8"/>
    <stop offset="50%"  stop-color="#F8F8F8"/>
    <stop offset="80%"  stop-color="#D8D8D8"/>
    <stop offset="100%" stop-color="#808080"/>
  </linearGradient>

  <linearGradient id="chromeHDark" x1="0%" y1="0%" x2="100%" y2="0%">
    <stop offset="0%"   stop-color="#606060"/>
    <stop offset="30%"  stop-color="#B0B0B0"/>
    <stop offset="50%"  stop-color="#D0D0D0"/>
    <stop offset="70%"  stop-color="#B0B0B0"/>
    <stop offset="100%" stop-color="#606060"/>
  </linearGradient>

  <radialGradient id="redGem" cx="35%" cy="30%" r="65%">
    <stop offset="0%"   stop-color="#FF8080"/>
    <stop offset="45%"  stop-color="#CC0000"/>
    <stop offset="100%" stop-color="#550000"/>
  </radialGradient>

  <radialGradient id="redGemSm" cx="35%" cy="30%" r="65%">
    <stop offset="0%"   stop-color="#FF9090"/>
    <stop offset="45%"  stop-color="#DD1010"/>
    <stop offset="100%" stop-color="#660000"/>
  </radialGradient>

  <radialGradient id="yellowGem" cx="35%" cy="30%" r="65%">
    <stop offset="0%"   stop-color="#FFFFA0"/>
    <stop offset="45%"  stop-color="#FFD700"/>
    <stop offset="100%" stop-color="#7A5800"/>
  </radialGradient>

  <radialGradient id="lowerIllum" cx="50%" cy="55%" r="58%" gradientUnits="objectBoundingBox">
    <stop offset="0%"   stop-color="#FFE8B0"/>
    <stop offset="45%"  stop-color="#E89040"/>
    <stop offset="100%" stop-color="#5A2808"/>
  </radialGradient>

  <linearGradient id="displayBg" x1="0%" y1="0%" x2="0%" y2="100%">
    <stop offset="0%"   stop-color="#C8C090"/>
    <stop offset="50%"  stop-color="#989060"/>
    <stop offset="100%" stop-color="#686038"/>
  </linearGradient>

  <linearGradient id="btmArchPeach" x1="0%" y1="0%" x2="100%" y2="0%">
    <stop offset="0%"   stop-color="#6A3010"/>
    <stop offset="25%"  stop-color="#D89040"/>
    <stop offset="50%"  stop-color="#FFD888"/>
    <stop offset="75%"  stop-color="#D89040"/>
    <stop offset="100%" stop-color="#6A3010"/>
  </linearGradient>

  <radialGradient id="archInterior" cx="50%" cy="85%" r="60%">
    <stop offset="0%"   stop-color="#3A1808"/>
    <stop offset="100%" stop-color="#0A0402"/>
  </radialGradient>

  <linearGradient id="metalPanel" x1="0%" y1="0%" x2="0%" y2="100%">
    <stop offset="0%"   stop-color="#3C1C0A"/>
    <stop offset="40%"  stop-color="#2A1208"/>
    <stop offset="100%" stop-color="#1A0806"/>
  </linearGradient>

  <radialGradient id="orangeBtn" cx="35%" cy="30%" r="65%">
    <stop offset="0%"   stop-color="#FFE080"/>
    <stop offset="50%"  stop-color="#E87010"/>
    <stop offset="100%" stop-color="#7A3800"/>
  </radialGradient>
</defs>

<!-- ============================================================
     CABINET BODY — now spans full arch outer width x=108→692
     ============================================================ -->
<rect x="108" y="455" width="584" height="420" rx="14" fill="url(#woodMain)"/>

<!-- ── BASE PLINTH (matches cabinet width) ─────────────────── -->
<rect x="100" y="862" width="600" height="55" rx="14" fill="url(#woodBase)"/>

<!-- ── FEET ─────────────────────────────────────────────────── -->
<rect x="120" y="892" width="52" height="46" rx="12" fill="#100604"/>
<rect x="196" y="892" width="52" height="46" rx="12" fill="#100604"/>
<rect x="552" y="892" width="52" height="46" rx="12" fill="#100604"/>
<rect x="628" y="892" width="52" height="46" rx="12" fill="#100604"/>

<!-- ── ILLUMINATED SIDE COLUMNS ────────────────────────────── -->
<!-- Left column — inner edge of arch wall left side (~x=192) -->
<rect x="196" y="455" width="36" height="406" rx="5" fill="url(#colGlow)"/>
<!-- Right column -->
<rect x="568" y="455" width="36" height="406" rx="5" fill="url(#colGlowL)"/>

<!-- Column base caps -->
<rect x="190" y="836" width="48" height="20" rx="4" fill="url(#chromeH)"/>
<rect x="562" y="836" width="48" height="20" rx="4" fill="url(#chromeH)"/>
<rect x="190" y="820" width="48" height="16" rx="3" fill="url(#woodColumn)"/>
<rect x="562" y="820" width="48" height="16" rx="3" fill="url(#woodColumn)"/>
<rect x="185" y="800" width="58" height="20" rx="5" fill="url(#woodColumn)"/>
<rect x="557" y="800" width="58" height="20" rx="5" fill="url(#woodColumn)"/>

<!-- ── MAIN ARCH TUBE (peach/cream glow ring) ─────────────── -->
<path fill-rule="evenodd" fill="url(#archPeach)"
  d="M 110 522
     L 110 312
     A 290 254 0 0 1 690 312
     L 690 522 Z
     M 192 522
     L 192 364
     A 208 246 0 0 1 608 364
     L 608 522 Z"/>

<!-- Arch interior dark fill -->
<path fill="url(#archInterior)"
  d="M 192 522
     L 192 364
     A 208 246 0 0 1 608 364
     L 608 522 Z"/>

<!-- Inner arch rim highlight -->
<path fill="none" stroke="#FFF0D0" stroke-width="3" opacity="0.6"
  d="M 192 522 L 192 364 A 208 246 0 0 1 608 364 L 608 522"/>

<!-- Outer arch dark edge -->
<path fill="none" stroke="#3C1808" stroke-width="2" opacity="0.7"
  d="M 110 522 L 110 312 A 290 254 0 0 1 690 312 L 690 522"/>

<!-- ── CHROME FIN STACKS ────────────────────────────────────── 
     Left fins: inner edge flush with cabinet outer wall at x=108
     Span: x=22 → x=108  (width=86)
     Right fins: outer edge flush at x=692
     Span: x=692 → x=778  (width=86) -->

<!-- LEFT FINS — outer edge at x=108 (cabinet left wall), inner edge at x=194 -->
<g id="leftFins">
  <rect x="108" y="354" width="86" height="20" rx="5" fill="url(#chromeH)"/>
  <rect x="118" y="376" width="66" height="14" rx="3" fill="url(#redGem)"/>
  <rect x="108" y="392" width="86" height="16" rx="4" fill="url(#chromeH)"/>
  <rect x="118" y="410" width="66" height="14" rx="3" fill="url(#redGem)"/>
  <rect x="108" y="426" width="86" height="16" rx="4" fill="url(#chromeH)"/>
  <rect x="118" y="444" width="66" height="14" rx="3" fill="url(#redGem)"/>
  <rect x="108" y="460" width="86" height="16" rx="4" fill="url(#chromeH)"/>
  <rect x="108" y="478" width="86" height="14" rx="4" fill="url(#chromeHDark)"/>
  <!-- Outer vertical rail at cabinet left wall -->
  <rect x="108" y="352" width="12" height="145" rx="3" fill="url(#chromeV)"/>
  <!-- Inner vertical rail at arch inner edge -->
  <rect x="182" y="352" width="12" height="145" rx="3" fill="url(#chromeV)"/>
</g>

<!-- RIGHT FINS — inner edge at x=606 (arch inner right), outer edge at x=692 (cabinet right wall) -->
<g id="rightFins">
  <rect x="606" y="354" width="86" height="20" rx="5" fill="url(#chromeH)"/>
  <rect x="616" y="376" width="66" height="14" rx="3" fill="url(#redGem)"/>
  <rect x="606" y="392" width="86" height="16" rx="4" fill="url(#chromeH)"/>
  <rect x="616" y="410" width="66" height="14" rx="3" fill="url(#redGem)"/>
  <rect x="606" y="426" width="86" height="16" rx="4" fill="url(#chromeH)"/>
  <rect x="616" y="444" width="66" height="14" rx="3" fill="url(#redGem)"/>
  <rect x="606" y="460" width="86" height="16" rx="4" fill="url(#chromeH)"/>
  <rect x="606" y="478" width="86" height="14" rx="4" fill="url(#chromeHDark)"/>
  <!-- Inner vertical rail at arch inner edge -->
  <rect x="606" y="352" width="12" height="145" rx="3" fill="url(#chromeV)"/>
  <!-- Outer vertical rail at cabinet right wall -->
  <rect x="680" y="352" width="12" height="145" rx="3" fill="url(#chromeV)"/>
</g>

<!-- ── CHROME CONNECTOR BRACKETS (top of fin stacks → arch outer wall) -->
<!-- Left: from fin outer rail (x=108) to arch inner edge (x=192) -->
<rect x="108" y="302" width="96"  height="18" rx="5" fill="url(#chromeH)"/>
<!-- Right: from arch inner edge (x=606) to fin outer rail (x=692) -->
<rect x="606" y="302" width="86"  height="18" rx="5" fill="url(#chromeH)"/>

<!-- ── TITLE BAR ──────────────────────────────────────────────── -->
<rect x="296" y="403" width="208" height="20" rx="5" fill="#1E0C04"/>
<rect x="300" y="406" width="200" height="14" rx="3" fill="#4A3010"/>
<circle cx="320" cy="413" r="4" fill="#C89040"/>
<circle cx="340" cy="413" r="4" fill="#C89040"/>

<!-- ── RECORD DISPLAY WINDOW ─────────────────────────────────── -->
<rect x="240" y="425" width="320" height="122" rx="7" fill="url(#chromeH)"/>
<rect x="250" y="433" width="300" height="106" rx="5" fill="url(#displayBg)"/>
<line x1="262" y1="452" x2="538" y2="452" stroke="#B0A860" stroke-width="2.5" opacity="0.9"/>
<line x1="262" y1="466" x2="538" y2="466" stroke="#B0A860" stroke-width="2.5" opacity="0.9"/>
<line x1="262" y1="480" x2="538" y2="480" stroke="#B0A860" stroke-width="2.5" opacity="0.9"/>
<line x1="262" y1="494" x2="538" y2="494" stroke="#B0A860" stroke-width="2.5" opacity="0.9"/>
<line x1="262" y1="508" x2="538" y2="508" stroke="#B0A860" stroke-width="2.5" opacity="0.9"/>
<line x1="262" y1="522" x2="538" y2="522" stroke="#B0A860" stroke-width="2.5" opacity="0.9"/>
<line x1="400" y1="435" x2="400" y2="537" stroke="#A09848" stroke-width="1.5" opacity="0.7"/>
<rect x="260" y="436" width="14" height="97" rx="3" fill="#404030"/>
<rect x="526" y="436" width="14" height="97" rx="3" fill="#404030"/>
<rect x="244" y="428" width="8"  height="28" rx="2" fill="url(#redGemSm)"/>
<rect x="548" y="428" width="8"  height="28" rx="2" fill="url(#redGemSm)"/>

<!-- ── SELECTOR BUTTON PANEL ─────────────────────────────────── -->
<rect x="240" y="553" width="320" height="56" rx="7" fill="url(#metalPanel)"/>
<rect x="240" y="553" width="320" height="5"  rx="2" fill="url(#chromeH)" opacity="0.7"/>
<rect x="240" y="604" width="320" height="5"  rx="2" fill="url(#chromeH)" opacity="0.5"/>
<circle cx="267" cy="581" r="9"   fill="url(#redGem)"/>
<circle cx="291" cy="581" r="8.5" fill="url(#orangeBtn)"/>
<circle cx="315" cy="581" r="8.5" fill="url(#orangeBtn)"/>
<circle cx="339" cy="581" r="8.5" fill="url(#orangeBtn)"/>
<circle cx="363" cy="581" r="8.5" fill="url(#orangeBtn)"/>
<circle cx="387" cy="581" r="8.5" fill="url(#orangeBtn)"/>
<circle cx="411" cy="581" r="8.5" fill="url(#orangeBtn)"/>
<circle cx="435" cy="581" r="8.5" fill="url(#orangeBtn)"/>
<circle cx="459" cy="581" r="8.5" fill="url(#orangeBtn)"/>
<circle cx="483" cy="581" r="8.5" fill="url(#orangeBtn)"/>
<circle cx="507" cy="581" r="8.5" fill="url(#orangeBtn)"/>
<circle cx="531" cy="581" r="9"   fill="url(#redGem)"/>

<!-- ── CREDIT BUTTONS ────────────────────────────────────────── -->
<rect x="340" y="614" width="120" height="34" rx="5" fill="#160A03"/>
<circle cx="370" cy="631" r="13" fill="url(#orangeBtn)" stroke="#6A3808" stroke-width="1.5"/>
<circle cx="400" cy="631" r="13" fill="url(#orangeBtn)" stroke="#6A3808" stroke-width="1.5"/>
<circle cx="430" cy="631" r="13" fill="url(#orangeBtn)" stroke="#6A3808" stroke-width="1.5"/>
<circle cx="367" cy="627" r="4" fill="rgba(255,240,180,0.5)"/>
<circle cx="397" cy="627" r="4" fill="rgba(255,240,180,0.5)"/>
<circle cx="427" cy="627" r="4" fill="rgba(255,240,180,0.5)"/>

<!-- ── LOWER ILLUMINATED WINDOW ───────────────────────────────── -->
<rect x="240" y="653" width="320" height="108" rx="7" fill="url(#chromeH)"/>
<rect x="250" y="661" width="300" height="92"  rx="5" fill="url(#lowerIllum)"/>

<!-- ── LOWER DECORATIVE ARCH ─────────────────────────────────── -->
<path fill-rule="evenodd" fill="url(#btmArchPeach)"
  d="M 308 784 L 308 740 A 92 92 0 0 1 492 740 L 492 784 Z
     M 328 784 L 328 748 A 72 72 0 0 1 472 748 L 472 784 Z"/>
<path fill="#1A0806"
  d="M 328 784 L 328 748 A 72 72 0 0 1 472 748 L 472 784 Z"/>

<!-- ── DECORATIVE MEDALLION ───────────────────────────────────── -->
<circle cx="400" cy="796" r="55" fill="url(#chromeH)"/>
<circle cx="400" cy="796" r="44" fill="#1A0806"/>
<path d="M 400 741 L 392 760 L 400 756 L 408 760 Z" fill="url(#chromeV)"/>
<ellipse cx="366" cy="792" rx="24" ry="10" fill="url(#chromeH)" transform="rotate(-15 366 792)"/>
<ellipse cx="434" cy="792" rx="24" ry="10" fill="url(#chromeH)" transform="rotate(15 434 792)"/>
<path d="M 345 796 L 355 790 L 355 802 Z" fill="url(#chromeV)"/>
<path d="M 455 796 L 445 790 L 445 802 Z" fill="url(#chromeV)"/>
<ellipse cx="400" cy="745" rx="10" ry="12" fill="url(#redGem)" stroke="#880000" stroke-width="1.5"/>
<ellipse cx="397" cy="741" rx="3.5" ry="4" fill="rgba(255,180,180,0.6)"/>
<circle cx="360" cy="782" r="6" fill="url(#redGemSm)"/>
<circle cx="440" cy="782" r="6" fill="url(#redGemSm)"/>
<circle cx="400" cy="798" r="20" fill="url(#yellowGem)" stroke="#9B7000" stroke-width="2"/>
<ellipse cx="394" cy="791" rx="7" ry="9" fill="rgba(255,255,200,0.55)"/>
<circle cx="400" cy="798" r="24" fill="none" stroke="url(#chromeH)" stroke-width="4"/>

<!-- ── TOP CHROME FINIAL ──────────────────────────────────────── -->
<rect x="391" y="72"  width="18" height="58" rx="5" fill="url(#chromeV)"/>
<rect x="356" y="90"  width="88" height="18" rx="5" fill="url(#chromeH)"/>
<rect x="368" y="112" width="64" height="10" rx="3" fill="url(#chromeHDark)"/>
<rect x="374" y="124" width="52" height="8"  rx="3" fill="url(#chromeHDark)"/>
<ellipse cx="400" cy="61" rx="19" ry="23" fill="url(#redGem)" stroke="#660000" stroke-width="2"/>
<ellipse cx="395" cy="54" rx="6" ry="9" fill="rgba(255,160,160,0.6)"/>
<rect x="348" y="83"  width="16" height="30" rx="4" fill="url(#chromeV)"/>
<rect x="436" y="83"  width="16" height="30" rx="4" fill="url(#chromeV)"/>
<circle cx="360" cy="96" r="7" fill="url(#redGem)"/>
<circle cx="440" cy="96" r="7" fill="url(#redGem)"/>

<!-- ── CHROME TRIM STRIPS ─────────────────────────────────────── -->
<rect x="108" y="452" width="584" height="10" rx="4" fill="url(#chromeH)" opacity="0.6"/>
<rect x="108" y="858" width="584" height="8"  rx="3" fill="url(#chromeH)" opacity="0.5"/>

<!-- Base centre knob -->
<circle cx="400" cy="878" r="9" fill="url(#chromeV)"/>
<circle cx="400" cy="878" r="5" fill="#1A0808"/>

</svg>